<svg width="517" height="290" viewBox="0 0 517 290" fill="none" xmlns="http://www.w3.org/2000/svg">
<g clip-path="url(#clip0_784_1267)">
<rect width="516" height="290" transform="translate(0.5)" fill="#FFE5EA"/>
<path d="M121 81.788L188.166 43L365 146.517L188.698 247L121.503 208.195L230.337 145.209L121 81.788Z" stroke="#151515" stroke-width="2" stroke-linecap="round" stroke-linejoin="round" stroke-dasharray="6 6"/>
<path d="M179 81.788L246.166 43L423 146.517L246.698 247L179.503 208.195L288.337 145.209L179 81.788Z" fill="#F7A1B0" stroke="#151515" stroke-width="2" stroke-linecap="round" stroke-linejoin="round"/>
<path d="M5 6.49265L35.8302 -11L117 35.684L36.0743 81L5.23111 63.4999L55.1874 35.0943L5 6.49265Z" stroke="#151515" stroke-width="2" stroke-linecap="round" stroke-linejoin="round" stroke-dasharray="6 6"/>
<path d="M44 6.49265L74.8302 -11L156 35.684L75.0743 81L44.2311 63.4999L94.1874 35.0943L44 6.49265Z" fill="#F97289" stroke="#151515" stroke-width="2" stroke-linecap="round" stroke-linejoin="round"/>
<path d="M5 226.493L35.8302 209L117 255.684L36.0743 301L5.23111 283.5L55.1874 255.094L5 226.493Z" stroke="#151515" stroke-width="2" stroke-linecap="round" stroke-linejoin="round" stroke-dasharray="6 6"/>
<path d="M44 226.493L74.8302 209L156 255.684L75.0743 301L44.2311 283.5L94.1874 255.094L44 226.493Z" fill="#F97289" stroke="#151515" stroke-width="2" stroke-linecap="round" stroke-linejoin="round"/>
<path d="M356 24.4926L386.83 7L468 53.684L387.074 99L356.231 81.4999L406.187 53.0943L356 24.4926Z" stroke="#151515" stroke-width="2" stroke-linecap="round" stroke-linejoin="round" stroke-dasharray="6 6"/>
<path d="M395 24.4926L425.83 7L507 53.684L426.074 99L395.231 81.4999L445.187 53.0943L395 24.4926Z" fill="#F97289" stroke="#151515" stroke-width="2" stroke-linecap="round" stroke-linejoin="round"/>
<path d="M356 218.493L386.83 201L468 247.684L387.074 293L356.231 275.5L406.187 247.094L356 218.493Z" stroke="#151515" stroke-width="2" stroke-linecap="round" stroke-linejoin="round" stroke-dasharray="6 6"/>
<path d="M395 218.493L425.83 201L507 247.684L426.074 293L395.231 275.5L445.187 247.094L395 218.493Z" fill="#F97289" stroke="#151515" stroke-width="2" stroke-linecap="round" stroke-linejoin="round"/>
</g>
<defs>
<clipPath id="clip0_784_1267">
<rect width="516" height="290" fill="white" transform="translate(0.5)"/>
</clipPath>
</defs>
</svg>
